<?xml version="1.0" encoding="UTF-8"?>
<svg width="398px" height="217px" viewBox="0 0 398 217" version="1.1" xmlns="http://www.w3.org/2000/svg" xmlns:xlink="http://www.w3.org/1999/xlink">
    <title>CraneLogo1</title>
    <defs>
        <radialGradient cx="-34.093906%" cy="254.411569%" fx="-34.093906%" fy="254.411569%" r="495.021779%" gradientTransform="translate(-0.340939,2.544116),scale(0.308989,1.000000),translate(0.340939,-2.544116)" id="radialGradient-1">
            <stop stop-color="#FFFFFF" offset="0%"></stop>
            <stop stop-color="#F9B22D" offset="50%"></stop>
            <stop stop-color="#C31F22" offset="100%"></stop>
        </radialGradient>
        <linearGradient x1="-65.4545455%" y1="49.9508833%" x2="44.7922938%" y2="49.9508833%" id="linearGradient-2">
            <stop stop-color="#FFFFFF" offset="0%"></stop>
            <stop stop-color="#FFFFFF" stop-opacity="0" offset="100%"></stop>
        </linearGradient>
        <linearGradient x1="-67.5521822%" y1="49.996692%" x2="81.2987561%" y2="49.996692%" id="linearGradient-3">
            <stop stop-color="#9D151A" offset="0%"></stop>
            <stop stop-color="#9D151A" stop-opacity="0" offset="100%"></stop>
        </linearGradient>
        <radialGradient cx="146.456697%" cy="-41.7596738%" fx="146.456697%" fy="-41.7596738%" r="416.333773%" gradientTransform="translate(1.464567,-0.417597),scale(0.459627,1.000000),translate(-1.464567,0.417597)" id="radialGradient-4">
            <stop stop-color="#FFFFFF" offset="0%"></stop>
            <stop stop-color="#F9B22D" offset="50%"></stop>
            <stop stop-color="#C31F22" offset="100%"></stop>
        </radialGradient>
        <linearGradient x1="134.400865%" y1="49.9899497%" x2="27.4811722%" y2="49.9899497%" id="linearGradient-5">
            <stop stop-color="#9D151A" offset="0%"></stop>
            <stop stop-color="#9D151A" stop-opacity="0" offset="100%"></stop>
        </linearGradient>
        <linearGradient x1="121.923767%" y1="50.0224145%" x2="20.6143498%" y2="50.0224145%" id="linearGradient-6">
            <stop stop-color="#9D151A" offset="0%"></stop>
            <stop stop-color="#9D151A" stop-opacity="0" offset="100%"></stop>
        </linearGradient>
        <linearGradient x1="172.252548%" y1="49.9893203%" x2="31.0806241%" y2="49.9893203%" id="linearGradient-7">
            <stop stop-color="#FFFFFF" offset="0%"></stop>
            <stop stop-color="#FFFFFF" stop-opacity="0" offset="100%"></stop>
        </linearGradient>
        <linearGradient x1="244.156761%" y1="90.2551763%" x2="39.5904437%" y2="51.0500655%" id="linearGradient-8">
            <stop stop-color="#FFFFFF" offset="0%"></stop>
            <stop stop-color="#FFFFFF" stop-opacity="0" offset="100%"></stop>
        </linearGradient>
        <linearGradient x1="237.364064%" y1="124.565957%" x2="36.6336634%" y2="50.3257323%" id="linearGradient-9">
            <stop stop-color="#FFFFFF" offset="0%"></stop>
            <stop stop-color="#FFFFFF" stop-opacity="0" offset="100%"></stop>
        </linearGradient>
        <linearGradient x1="277.66738%" y1="50%" x2="-45.353103%" y2="50%" id="linearGradient-10">
            <stop stop-color="#9D151A" offset="0%"></stop>
            <stop stop-color="#9D151A" stop-opacity="0" offset="100%"></stop>
        </linearGradient>
        <linearGradient x1="213.499837%" y1="50%" x2="-41.1851126%" y2="50%" id="linearGradient-11">
            <stop stop-color="#9D151A" offset="0%"></stop>
            <stop stop-color="#9D151A" stop-opacity="0" offset="100%"></stop>
        </linearGradient>
        <linearGradient x1="-112.153285%" y1="49.9591503%" x2="70.8394161%" y2="49.9591503%" id="linearGradient-12">
            <stop stop-color="#9D151A" offset="0%"></stop>
            <stop stop-color="#9D151A" stop-opacity="0" offset="100%"></stop>
        </linearGradient>
        <linearGradient x1="-170.764404%" y1="50%" x2="91.7284655%" y2="50%" id="linearGradient-13">
            <stop stop-color="#9D151A" offset="0%"></stop>
            <stop stop-color="#9D151A" stop-opacity="0" offset="100%"></stop>
        </linearGradient>
        <radialGradient cx="170.400397%" cy="-128.639989%" fx="170.400397%" fy="-128.639989%" r="578.854936%" gradientTransform="translate(1.704004,-1.286400),scale(0.406417,1.000000),translate(-1.704004,1.286400)" id="radialGradient-14">
            <stop stop-color="#FFFFFF" offset="0%"></stop>
            <stop stop-color="#F9B22D" offset="50%"></stop>
            <stop stop-color="#C31F22" offset="100%"></stop>
        </radialGradient>
        <linearGradient x1="267.565624%" y1="50.0310744%" x2="-16.5408127%" y2="50.0310744%" id="linearGradient-15">
            <stop stop-color="#9D151A" offset="0%"></stop>
            <stop stop-color="#9D151A" stop-opacity="0" offset="100%"></stop>
        </linearGradient>
        <linearGradient x1="-94.1690114%" y1="50.046376%" x2="86.8341904%" y2="50.046376%" id="linearGradient-16">
            <stop stop-color="#9D151A" offset="0%"></stop>
            <stop stop-color="#9D151A" stop-opacity="0" offset="100%"></stop>
        </linearGradient>
        <radialGradient cx="128.066391%" cy="14.3849455%" fx="128.066391%" fy="14.3849455%" r="783.062101%" gradientTransform="translate(1.280664,0.143849),scale(0.215190,1.000000),translate(-1.280664,-0.143849)" id="radialGradient-17">
            <stop stop-color="#FFFFFF" offset="0%"></stop>
            <stop stop-color="#F9B22D" offset="50%"></stop>
            <stop stop-color="#C31F22" offset="100%"></stop>
        </radialGradient>
        <linearGradient x1="-54.9904814%" y1="50.0393711%" x2="60.8648355%" y2="50.0393711%" id="linearGradient-18">
            <stop stop-color="#FFFFFF" offset="0%"></stop>
            <stop stop-color="#FFFFFF" stop-opacity="0" offset="100%"></stop>
        </linearGradient>
        <radialGradient cx="178.507694%" cy="39.8550248%" fx="178.507694%" fy="39.8550248%" r="751.986355%" gradientTransform="translate(1.785077,0.398550),scale(0.315068,1.000000),translate(-1.785077,-0.398550)" id="radialGradient-19">
            <stop stop-color="#FFFFFF" offset="0%"></stop>
            <stop stop-color="#F9B22D" offset="50%"></stop>
            <stop stop-color="#C31F22" offset="100%"></stop>
        </radialGradient>
        <linearGradient x1="154.125099%" y1="49.7659053%" x2="10.2929533%" y2="49.7659053%" id="linearGradient-20">
            <stop stop-color="#FFFFFF" offset="0%"></stop>
            <stop stop-color="#FFFFFF" stop-opacity="0" offset="100%"></stop>
        </linearGradient>
    </defs>
    <g id="Page-1" stroke="none" stroke-width="1" fill="none" fill-rule="evenodd">
        <g id="CraneLogo1" fill-rule="nonzero">
            <path d="M76.3438892,147.913773 C59.3904877,161.558613 37.1110175,170.547394 0,170.224056 C57.6972908,205.144499 127.06478,207.062968 178,169.146265 C143.943167,148.743672 109.543408,132.943249 76.3438892,147.913773 Z" id="Path" fill="url(#radialGradient-1)"></path>
            <path d="M0,169.536975 C57.6972908,204.049318 127.06478,205.945367 178,168.471779 C165.140277,160.844977 152.226972,153.921205 139.313666,149 C101.999037,180.359364 51.063817,184.620147 0,169.536975 Z" id="Path" fill="url(#linearGradient-2)"></path>
            <path d="M77,147.869664 C108.54786,139.837048 139.243938,156.148287 164.158549,178 C168.938492,175.228855 173.559598,172.189993 178,168.897794 C144.162977,148.693248 109.985241,133.013067 77,147.869664 Z" id="Path" fill="url(#linearGradient-3)"></path>
            <path d="M238.877504,79.4682534 C121.199176,48.6026218 137.299711,90.3940462 76,147.415364 C155.539852,111.775705 241.958537,251.899265 314.566065,208.612619 C296.529187,204.052195 281.295193,193.66041 271.773946,171.007813 C304.755972,187.497964 334.967208,185.682339 362.889066,168.497978 C339.663643,165.956103 318.460148,156.578932 300.840493,135.165232 C350.532842,148.333856 384.167447,136.916777 398,93.598091 C355.507425,119.166368 295.149141,94.2175396 238.877504,79.4682534 Z" id="Path" fill="url(#radialGradient-4)"></path>
            <path d="M300.960406,135.475916 C291.148206,132.823014 281.501416,129.599283 272.069943,125.821402 C278.449421,137.73675 287.454735,148.066474 298.413765,156.039604 C250.519797,146.183069 217.00686,104.885569 164.57602,103.046108 C130.560174,101.855243 111.706472,123.918145 76,147.703548 C103.820446,132.317997 137.194281,124.704966 161.119864,130.393474 C207.205503,141.366445 229.515361,180.93081 269.191596,191 C260.258611,181.053 253.315171,169.505431 248.732869,156.975283 C256.02793,162.358394 263.766573,167.120987 271.866639,171.212501 C304.855268,187.629427 335.072552,185.821863 363,168.713811 C339.759227,166.130059 318.551488,156.794527 300.960406,135.475916 Z" id="Path" fill="url(#linearGradient-5)"></path>
            <path d="M272.183632,170.958241 C264.070457,166.842137 256.31929,162.050919 249.012422,156.635455 C253.60214,169.240912 260.556817,180.857883 269.50426,190.864667 C229.785247,180.73496 207.439283,140.932804 161.257623,129.893884 C137.293318,124.171187 103.886906,131.829973 76,147.307995 C155.684529,111.613345 242.260404,251.953114 315,208.599678 C296.983901,204.05361 281.722197,193.603004 272.183632,170.958241 Z" id="Path" fill="url(#linearGradient-6)"></path>
            <path d="M239.207961,79.4768086 C212.33694,72.4068317 192.447901,69.1601958 177,69 C235.25791,79.9894353 287.441283,117.945172 331.60712,120.73258 C360.538573,122.537453 384.110768,115.392718 398,93.6060825 C355.595672,119.17334 295.362736,94.2255065 239.207961,79.4768086 Z" id="Path" fill="url(#linearGradient-7)"></path>
            <path d="M300.916088,135.678987 C291.095186,133.01936 281.439839,129.787457 272,126 C278.385137,137.945553 287.398439,148.301461 298.367188,156.294802 C319.925738,171.676717 341.484289,175.482221 363,168.92652 C339.749323,166.410836 318.522773,157.05164 300.916088,135.678987 Z" id="Path" fill="url(#linearGradient-8)"></path>
            <path d="M272.160526,171.254199 C264.051092,167.157806 256.303499,162.389531 249,157 C253.587602,169.545094 260.539072,181.106436 269.482389,191.065301 C282.637397,206.554368 298.29914,210.109934 315,208.726031 C296.949359,204.191087 281.694692,193.790525 272.160526,171.254199 Z" id="Path" fill="url(#linearGradient-9)"></path>
            <path d="M284.214308,152.509231 C263.210028,145.261538 244.623968,132.693846 225,122 C247.609294,137.507692 268.602874,155.524615 295,164 C291.071097,160.501542 287.461443,156.65592 284.214308,152.509231 L284.214308,152.509231 Z" id="Path" fill="url(#linearGradient-10)"></path>
            <path d="M199,148 C221.474045,166.494975 238.593536,189.133166 265,199 C262.285796,195.328924 259.820373,191.483374 257.61998,187.488693 C236.3095,178.486809 219.437806,161.561558 199,148 Z" id="Path" fill="url(#linearGradient-11)"></path>
            <path d="M249,157 C250.590194,161.327429 252.453204,165.548923 254.577737,169.638889 C261.956423,174.810161 269.797471,179.283048 278,183 C275.634774,179.256899 273.588349,175.32029 271.882482,171.232026 C263.870028,167.14166 256.215434,162.380796 249,157 L249,157 Z" id="Path" fill="url(#linearGradient-12)"></path>
            <path d="M301.264119,135.681257 C291.325013,133.021006 281.553455,129.788346 272,126 C273.949157,129.534809 276.121107,132.946255 278.503137,136.214366 C288.757658,139.932755 299.287651,142.869958 310,145 C306.888512,142.080673 303.970562,138.968037 301.264119,135.681257 L301.264119,135.681257 Z" id="Path" fill="url(#linearGradient-13)"></path>
            <path d="M319.14194,14.161047 C310.863546,4.30074477 299.284476,1.46054902 285.141775,6.32639382 C268.65976,11.9210436 262.36818,24.8894846 249.090705,31.3201165 C206.662601,51.9517272 180.727194,40.8052985 138,79.8713874 C156.159058,67.1280185 181.795374,64.9416036 238.889587,80 C244.604349,71.4258241 251.056156,63.6233241 258.875232,57.353458 C270.753392,47.9111468 286.295409,46.8393748 300.267202,41.3840554 C327.954423,30.6556179 329.41783,14.5361672 319.14194,14.161047 Z" id="Path" fill="url(#radialGradient-14)"></path>
            <path d="M269.228695,15.5087288 C266.046386,18.3097455 263.065624,21.2872043 260,24 C278.49982,22.8090165 297.890687,2.60640759 319,13.854585 C303.279396,1.45953459 285.606976,12.0681098 269.228695,15.5087288 Z" id="Path" fill="url(#linearGradient-15)"></path>
            <path d="M138,79.87982 C147.605123,72.9858557 159.344717,69.1510197 176.612593,69.2821252 C192.055496,69.4460071 211.9381,72.7673465 238.800427,80 C241.624717,75.669997 244.696601,71.5147154 248,67.5559028 C214.894344,61.7981862 167.082177,54.6092345 138,79.87982 Z" id="Path" fill="url(#linearGradient-16)"></path>
            <path d="M241,6.97381621 C263.204651,34.5278297 294.20737,-5.64642635 320,14.352985 C299.535627,-16.5781221 266.126598,13.0481988 241,6.97381621 Z" id="Path" fill="url(#radialGradient-17)"></path>
            <path d="M241,6.80230817 C255.137068,15.5186809 270.681398,9.47604213 285.559695,6.26756138 C297.892032,3.55104767 309.7517,2.80240216 320,14 C299.535627,-16.170414 266.126598,12.7273026 241,6.80230817 Z" id="Path" fill="url(#linearGradient-18)"></path>
            <path d="M319.553767,13.5651061 C327.820337,13.8535233 328.471836,24.3433643 314,34 C337.460233,24.0026919 361.937257,16.5849236 387,11.8773312 C364.515461,10.2913979 341.930877,10.8565546 319.553767,13.5651061 L319.553767,13.5651061 Z" id="Path" fill="url(#radialGradient-19)"></path>
            <path d="M319,13.534211 C323.436421,13.6941922 325.676168,16.7338348 324.631671,21 C345.093313,16.0667666 365.971596,13.0177048 387,11.8917374 C364.332222,10.2941299 341.562211,10.8441173 319,13.534211 L319,13.534211 Z" id="Path" fill="url(#linearGradient-20)"></path>
        </g>
    </g>
</svg>