<?xml version="1.0" encoding="UTF-8"?>
<svg width="517px" height="385px" viewBox="0 0 517 385" version="1.1" xmlns="http://www.w3.org/2000/svg" xmlns:xlink="http://www.w3.org/1999/xlink">
    <title>Group</title>
    <defs>
        <radialGradient cx="-34.093906%" cy="254.411569%" fx="-34.093906%" fy="254.411569%" r="495.021779%" gradientTransform="translate(-0.340939,2.544116),scale(0.308989,1.000000),translate(0.340939,-2.544116)" id="radialGradient-1">
            <stop stop-color="#FFFFFF" offset="0%"></stop>
            <stop stop-color="#F9B22D" offset="50%"></stop>
            <stop stop-color="#C31F22" offset="100%"></stop>
        </radialGradient>
        <linearGradient x1="-65.4545455%" y1="49.9508833%" x2="44.7922938%" y2="49.9508833%" id="linearGradient-2">
            <stop stop-color="#FFFFFF" offset="0%"></stop>
            <stop stop-color="#FFFFFF" stop-opacity="0" offset="100%"></stop>
        </linearGradient>
        <linearGradient x1="-67.5521822%" y1="49.996692%" x2="81.2987561%" y2="49.996692%" id="linearGradient-3">
            <stop stop-color="#9D151A" offset="0%"></stop>
            <stop stop-color="#9D151A" stop-opacity="0" offset="100%"></stop>
        </linearGradient>
        <radialGradient cx="146.456697%" cy="-41.7596738%" fx="146.456697%" fy="-41.7596738%" r="416.333773%" gradientTransform="translate(1.464567,-0.417597),scale(0.459627,1.000000),translate(-1.464567,0.417597)" id="radialGradient-4">
            <stop stop-color="#FFFFFF" offset="0%"></stop>
            <stop stop-color="#F9B22D" offset="50%"></stop>
            <stop stop-color="#C31F22" offset="100%"></stop>
        </radialGradient>
        <linearGradient x1="134.400865%" y1="49.9899497%" x2="27.4811722%" y2="49.9899497%" id="linearGradient-5">
            <stop stop-color="#9D151A" offset="0%"></stop>
            <stop stop-color="#9D151A" stop-opacity="0" offset="100%"></stop>
        </linearGradient>
        <linearGradient x1="121.923767%" y1="50.0224145%" x2="20.6143498%" y2="50.0224145%" id="linearGradient-6">
            <stop stop-color="#9D151A" offset="0%"></stop>
            <stop stop-color="#9D151A" stop-opacity="0" offset="100%"></stop>
        </linearGradient>
        <linearGradient x1="172.252548%" y1="49.9893203%" x2="31.0806241%" y2="49.9893203%" id="linearGradient-7">
            <stop stop-color="#FFFFFF" offset="0%"></stop>
            <stop stop-color="#FFFFFF" stop-opacity="0" offset="100%"></stop>
        </linearGradient>
        <linearGradient x1="244.156761%" y1="90.2551763%" x2="39.5904437%" y2="51.0500655%" id="linearGradient-8">
            <stop stop-color="#FFFFFF" offset="0%"></stop>
            <stop stop-color="#FFFFFF" stop-opacity="0" offset="100%"></stop>
        </linearGradient>
        <linearGradient x1="237.364064%" y1="124.565957%" x2="36.6336634%" y2="50.3257323%" id="linearGradient-9">
            <stop stop-color="#FFFFFF" offset="0%"></stop>
            <stop stop-color="#FFFFFF" stop-opacity="0" offset="100%"></stop>
        </linearGradient>
        <linearGradient x1="277.66738%" y1="50%" x2="-45.353103%" y2="50%" id="linearGradient-10">
            <stop stop-color="#9D151A" offset="0%"></stop>
            <stop stop-color="#9D151A" stop-opacity="0" offset="100%"></stop>
        </linearGradient>
        <linearGradient x1="213.499837%" y1="50%" x2="-41.1851126%" y2="50%" id="linearGradient-11">
            <stop stop-color="#9D151A" offset="0%"></stop>
            <stop stop-color="#9D151A" stop-opacity="0" offset="100%"></stop>
        </linearGradient>
        <linearGradient x1="-112.153285%" y1="49.9591503%" x2="70.8394161%" y2="49.9591503%" id="linearGradient-12">
            <stop stop-color="#9D151A" offset="0%"></stop>
            <stop stop-color="#9D151A" stop-opacity="0" offset="100%"></stop>
        </linearGradient>
        <linearGradient x1="-170.764404%" y1="50%" x2="91.7284655%" y2="50%" id="linearGradient-13">
            <stop stop-color="#9D151A" offset="0%"></stop>
            <stop stop-color="#9D151A" stop-opacity="0" offset="100%"></stop>
        </linearGradient>
        <radialGradient cx="170.400397%" cy="-128.639989%" fx="170.400397%" fy="-128.639989%" r="578.854936%" gradientTransform="translate(1.704004,-1.286400),scale(0.406417,1.000000),translate(-1.704004,1.286400)" id="radialGradient-14">
            <stop stop-color="#FFFFFF" offset="0%"></stop>
            <stop stop-color="#F9B22D" offset="50%"></stop>
            <stop stop-color="#C31F22" offset="100%"></stop>
        </radialGradient>
        <linearGradient x1="267.565624%" y1="50.0310744%" x2="-16.5408127%" y2="50.0310744%" id="linearGradient-15">
            <stop stop-color="#9D151A" offset="0%"></stop>
            <stop stop-color="#9D151A" stop-opacity="0" offset="100%"></stop>
        </linearGradient>
        <linearGradient x1="-94.1690114%" y1="50.046376%" x2="86.8341904%" y2="50.046376%" id="linearGradient-16">
            <stop stop-color="#9D151A" offset="0%"></stop>
            <stop stop-color="#9D151A" stop-opacity="0" offset="100%"></stop>
        </linearGradient>
        <radialGradient cx="128.066391%" cy="14.3849455%" fx="128.066391%" fy="14.3849455%" r="783.062101%" gradientTransform="translate(1.280664,0.143849),scale(0.215190,1.000000),translate(-1.280664,-0.143849)" id="radialGradient-17">
            <stop stop-color="#FFFFFF" offset="0%"></stop>
            <stop stop-color="#F9B22D" offset="50%"></stop>
            <stop stop-color="#C31F22" offset="100%"></stop>
        </radialGradient>
        <linearGradient x1="-54.9904814%" y1="50.0393711%" x2="60.8648355%" y2="50.0393711%" id="linearGradient-18">
            <stop stop-color="#FFFFFF" offset="0%"></stop>
            <stop stop-color="#FFFFFF" stop-opacity="0" offset="100%"></stop>
        </linearGradient>
        <radialGradient cx="178.507694%" cy="39.8550248%" fx="178.507694%" fy="39.8550248%" r="751.986355%" gradientTransform="translate(1.785077,0.398550),scale(0.315068,1.000000),translate(-1.785077,-0.398550)" id="radialGradient-19">
            <stop stop-color="#FFFFFF" offset="0%"></stop>
            <stop stop-color="#F9B22D" offset="50%"></stop>
            <stop stop-color="#C31F22" offset="100%"></stop>
        </radialGradient>
        <linearGradient x1="154.125099%" y1="49.7659053%" x2="10.2929533%" y2="49.7659053%" id="linearGradient-20">
            <stop stop-color="#FFFFFF" offset="0%"></stop>
            <stop stop-color="#FFFFFF" stop-opacity="0" offset="100%"></stop>
        </linearGradient>
        <linearGradient x1="50%" y1="81.1223047%" x2="50%" y2="2.91309702%" id="linearGradient-21">
            <stop stop-color="#232F5E" offset="0%"></stop>
            <stop stop-color="#0069AB" offset="51%"></stop>
            <stop stop-color="#EA5B0C" offset="100%"></stop>
        </linearGradient>
        <linearGradient x1="49.9759615%" y1="82.1230312%" x2="49.9759615%" y2="2.94543335%" id="linearGradient-22">
            <stop stop-color="#232F5E" offset="0%"></stop>
            <stop stop-color="#0069AB" offset="51%"></stop>
            <stop stop-color="#EA5B0C" offset="100%"></stop>
        </linearGradient>
        <linearGradient x1="49.9692963%" y1="81.134207%" x2="49.9692963%" y2="2.88070493%" id="linearGradient-23">
            <stop stop-color="#232F5E" offset="0%"></stop>
            <stop stop-color="#0069AB" offset="51%"></stop>
            <stop stop-color="#EA5B0C" offset="100%"></stop>
        </linearGradient>
        <linearGradient x1="50.0723851%" y1="82.1242305%" x2="50.0723851%" y2="2.95194469%" id="linearGradient-24">
            <stop stop-color="#232F5E" offset="0%"></stop>
            <stop stop-color="#0069AB" offset="51%"></stop>
            <stop stop-color="#EA5B0C" offset="100%"></stop>
        </linearGradient>
        <linearGradient x1="50%" y1="81.1314363%" x2="50%" y2="2.91327913%" id="linearGradient-25">
            <stop stop-color="#232F5E" offset="0%"></stop>
            <stop stop-color="#0069AB" offset="51%"></stop>
            <stop stop-color="#EA5B0C" offset="100%"></stop>
        </linearGradient>
    </defs>
    <g id="Page-1" stroke="none" stroke-width="1" fill="none" fill-rule="evenodd">
        <g id="Group" fill-rule="nonzero">
            <g id="CraneLogo1" transform="translate(50.000000, 0.000000)">
                <path d="M76.3438892,147.913773 C59.3904877,161.558613 37.1110175,170.547394 0,170.224056 C57.6972908,205.144499 127.06478,207.062968 178,169.146265 C143.943167,148.743672 109.543408,132.943249 76.3438892,147.913773 Z" id="Path" fill="url(#radialGradient-1)"></path>
                <path d="M0,169.536975 C57.6972908,204.049318 127.06478,205.945367 178,168.471779 C165.140277,160.844977 152.226972,153.921205 139.313666,149 C101.999037,180.359364 51.063817,184.620147 0,169.536975 Z" id="Path" fill="url(#linearGradient-2)"></path>
                <path d="M77,147.869664 C108.54786,139.837048 139.243938,156.148287 164.158549,178 C168.938492,175.228855 173.559598,172.189993 178,168.897794 C144.162977,148.693248 109.985241,133.013067 77,147.869664 Z" id="Path" fill="url(#linearGradient-3)"></path>
                <path d="M238.877504,79.4682534 C121.199176,48.6026218 137.299711,90.3940462 76,147.415364 C155.539852,111.775705 241.958537,251.899265 314.566065,208.612619 C296.529187,204.052195 281.295193,193.66041 271.773946,171.007813 C304.755972,187.497964 334.967208,185.682339 362.889066,168.497978 C339.663643,165.956103 318.460148,156.578932 300.840493,135.165232 C350.532842,148.333856 384.167447,136.916777 398,93.598091 C355.507425,119.166368 295.149141,94.2175396 238.877504,79.4682534 Z" id="Path" fill="url(#radialGradient-4)"></path>
                <path d="M300.960406,135.475916 C291.148206,132.823014 281.501416,129.599283 272.069943,125.821402 C278.449421,137.73675 287.454735,148.066474 298.413765,156.039604 C250.519797,146.183069 217.00686,104.885569 164.57602,103.046108 C130.560174,101.855243 111.706472,123.918145 76,147.703548 C103.820446,132.317997 137.194281,124.704966 161.119864,130.393474 C207.205503,141.366445 229.515361,180.93081 269.191596,191 C260.258611,181.053 253.315171,169.505431 248.732869,156.975283 C256.02793,162.358394 263.766573,167.120987 271.866639,171.212501 C304.855268,187.629427 335.072552,185.821863 363,168.713811 C339.759227,166.130059 318.551488,156.794527 300.960406,135.475916 Z" id="Path" fill="url(#linearGradient-5)"></path>
                <path d="M272.183632,170.958241 C264.070457,166.842137 256.31929,162.050919 249.012422,156.635455 C253.60214,169.240912 260.556817,180.857883 269.50426,190.864667 C229.785247,180.73496 207.439283,140.932804 161.257623,129.893884 C137.293318,124.171187 103.886906,131.829973 76,147.307995 C155.684529,111.613345 242.260404,251.953114 315,208.599678 C296.983901,204.05361 281.722197,193.603004 272.183632,170.958241 Z" id="Path" fill="url(#linearGradient-6)"></path>
                <path d="M239.207961,79.4768086 C212.33694,72.4068317 192.447901,69.1601958 177,69 C235.25791,79.9894353 287.441283,117.945172 331.60712,120.73258 C360.538573,122.537453 384.110768,115.392718 398,93.6060825 C355.595672,119.17334 295.362736,94.2255065 239.207961,79.4768086 Z" id="Path" fill="url(#linearGradient-7)"></path>
                <path d="M300.916088,135.678987 C291.095186,133.01936 281.439839,129.787457 272,126 C278.385137,137.945553 287.398439,148.301461 298.367188,156.294802 C319.925738,171.676717 341.484289,175.482221 363,168.92652 C339.749323,166.410836 318.522773,157.05164 300.916088,135.678987 Z" id="Path" fill="url(#linearGradient-8)"></path>
                <path d="M272.160526,171.254199 C264.051092,167.157806 256.303499,162.389531 249,157 C253.587602,169.545094 260.539072,181.106436 269.482389,191.065301 C282.637397,206.554368 298.29914,210.109934 315,208.726031 C296.949359,204.191087 281.694692,193.790525 272.160526,171.254199 Z" id="Path" fill="url(#linearGradient-9)"></path>
                <path d="M284.214308,152.509231 C263.210028,145.261538 244.623968,132.693846 225,122 C247.609294,137.507692 268.602874,155.524615 295,164 C291.071097,160.501542 287.461443,156.65592 284.214308,152.509231 L284.214308,152.509231 Z" id="Path" fill="url(#linearGradient-10)"></path>
                <path d="M199,148 C221.474045,166.494975 238.593536,189.133166 265,199 C262.285796,195.328924 259.820373,191.483374 257.61998,187.488693 C236.3095,178.486809 219.437806,161.561558 199,148 Z" id="Path" fill="url(#linearGradient-11)"></path>
                <path d="M249,157 C250.590194,161.327429 252.453204,165.548923 254.577737,169.638889 C261.956423,174.810161 269.797471,179.283048 278,183 C275.634774,179.256899 273.588349,175.32029 271.882482,171.232026 C263.870028,167.14166 256.215434,162.380796 249,157 L249,157 Z" id="Path" fill="url(#linearGradient-12)"></path>
                <path d="M301.264119,135.681257 C291.325013,133.021006 281.553455,129.788346 272,126 C273.949157,129.534809 276.121107,132.946255 278.503137,136.214366 C288.757658,139.932755 299.287651,142.869958 310,145 C306.888512,142.080673 303.970562,138.968037 301.264119,135.681257 L301.264119,135.681257 Z" id="Path" fill="url(#linearGradient-13)"></path>
                <path d="M319.14194,14.161047 C310.863546,4.30074477 299.284476,1.46054902 285.141775,6.32639382 C268.65976,11.9210436 262.36818,24.8894846 249.090705,31.3201165 C206.662601,51.9517272 180.727194,40.8052985 138,79.8713874 C156.159058,67.1280185 181.795374,64.9416036 238.889587,80 C244.604349,71.4258241 251.056156,63.6233241 258.875232,57.353458 C270.753392,47.9111468 286.295409,46.8393748 300.267202,41.3840554 C327.954423,30.6556179 329.41783,14.5361672 319.14194,14.161047 Z" id="Path" fill="url(#radialGradient-14)"></path>
                <path d="M269.228695,15.5087288 C266.046386,18.3097455 263.065624,21.2872043 260,24 C278.49982,22.8090165 297.890687,2.60640759 319,13.854585 C303.279396,1.45953459 285.606976,12.0681098 269.228695,15.5087288 Z" id="Path" fill="url(#linearGradient-15)"></path>
                <path d="M138,79.87982 C147.605123,72.9858557 159.344717,69.1510197 176.612593,69.2821252 C192.055496,69.4460071 211.9381,72.7673465 238.800427,80 C241.624717,75.669997 244.696601,71.5147154 248,67.5559028 C214.894344,61.7981862 167.082177,54.6092345 138,79.87982 Z" id="Path" fill="url(#linearGradient-16)"></path>
                <path d="M241,6.97381621 C263.204651,34.5278297 294.20737,-5.64642635 320,14.352985 C299.535627,-16.5781221 266.126598,13.0481988 241,6.97381621 Z" id="Path" fill="url(#radialGradient-17)"></path>
                <path d="M241,6.80230817 C255.137068,15.5186809 270.681398,9.47604213 285.559695,6.26756138 C297.892032,3.55104767 309.7517,2.80240216 320,14 C299.535627,-16.170414 266.126598,12.7273026 241,6.80230817 Z" id="Path" fill="url(#linearGradient-18)"></path>
                <path d="M319.553767,13.5651061 C327.820337,13.8535233 328.471836,24.3433643 314,34 C337.460233,24.0026919 361.937257,16.5849236 387,11.8773312 C364.515461,10.2913979 341.930877,10.8565546 319.553767,13.5651061 L319.553767,13.5651061 Z" id="Path" fill="url(#radialGradient-19)"></path>
                <path d="M319,13.534211 C323.436421,13.6941922 325.676168,16.7338348 324.631671,21 C345.093313,16.0667666 365.971596,13.0177048 387,11.8917374 C364.332222,10.2941299 341.562211,10.8441173 319,13.534211 L319,13.534211 Z" id="Path" fill="url(#linearGradient-20)"></path>
            </g>
            <path d="M56.391892,337.135558 L78,337.135558 L78,345.980075 C78,358.986717 74.969595,368.741698 68.908784,375.245019 C62.847973,381.74834 52.966216,385 39.263514,385 C25.912162,385 16.030405,381.835051 9.618243,375.505152 C3.206081,369.175253 0,359.328743 0,345.965623 L0,296.020119 C0,282.868959 3.206081,273.070622 9.618243,266.625108 C16.030405,260.179595 26,256.97129 39.527027,256.999809 C53.054054,256.999809 62.847973,260.208499 68.908784,266.625108 C74.969595,273.041718 78,282.840055 78,296.020119 L78,304.344369 L56.655405,304.344369 L56.655405,296.020119 C56.655405,283.495204 50.945946,277.232747 39.527027,277.232747 C27.932432,277.232747 22.135135,283.495204 22.135135,296.020119 L22.135135,345.965623 C22.135135,358.490537 27.844595,364.752994 39.263514,364.752994 C50.682432,364.752994 56.391892,358.490537 56.391892,345.965623 L56.391892,337.135558 Z" id="Path" fill="url(#linearGradient-21)"></path>
            <path d="M113,384 L113,258.577747 L134.115385,258.577747 L134.907212,280.004049 L135.992308,280.004049 C137.930049,273.516902 141.573488,267.655665 146.55,263.019785 C151.214681,258.980899 157.247756,256.834498 163.442308,257.009969 C167.124897,257.009373 170.75094,257.906796 174,259.622933 L174,280.265345 C171.360577,278.523369 167.401442,277.652381 162.122596,277.652381 C155.084135,277.652381 149.453365,279.742752 145.230288,283.923494 C141.007212,288.104236 137.830128,295.749574 135.699038,306.859508 L135.699038,383.941934 L113,384 Z" id="Path" fill="url(#linearGradient-22)"></path>
            <path d="M268.324288,383.467239 L267.536919,367.561229 L266.487095,367.561229 C263.733224,372.367823 260.028457,376.573062 255.595164,379.924537 C251.13341,383.308179 244.79072,385 236.567093,385 C226.59376,385 219.507444,382.483958 215.308145,377.451875 C211.108847,372.419792 209.009198,365.671788 209.009198,357.207863 L209.009198,344.714415 C208.915734,340.007744 209.535028,335.313812 210.846391,330.789426 C211.970096,327.079648 213.969494,323.689023 216.67875,320.89878 C219.676812,317.953031 223.189504,315.571858 227.045768,313.871216 C232.094896,311.602101 237.316429,309.730972 242.661909,308.275192 C245.461441,307.407591 248.304716,306.583371 251.191733,305.80253 C253.828131,305.106924 256.414711,304.237387 258.93419,303.199729 C260.982894,302.392317 262.854543,301.19909 264.445769,299.685947 C265.839065,298.311806 266.598751,296.428338 266.545418,294.480343 L266.545418,289.27474 C266.545418,280.772255 261.121324,276.521012 250.273137,276.521012 C238.375125,276.521012 232.426119,281.206055 232.426119,290.576141 L232.426119,298.644826 L211.050523,298.644826 L211.050523,287.973339 C211.050523,277.562133 214.593681,269.797108 221.679997,264.678265 C228.766313,259.559422 238.695904,257 251.46877,257 C276.48959,257 289,266.717126 289,286.151378 L289,383.496159 L268.324288,383.467239 Z M266.942387,315 C264.773031,316.674356 262.339549,317.9801 259.740741,318.864219 C257.493827,319.551191 253.950617,320.58165 249.111111,321.955594 C241.851852,324.188254 237.185185,326.678528 235.111111,329.426418 C233.037037,332.174307 232,335.952654 232,340.76146 L232,351.838888 C232,360.597784 236.925926,364.977232 246.777778,364.977232 C251.25508,365.188848 255.676791,363.920575 259.351852,361.370628 C262.901582,358.468754 265.552999,354.628493 267,350.2932 L266.942387,315 Z" id="Shape" fill="url(#linearGradient-23)"></path>
            <path d="M381.386898,384 L381.386898,294.64264 C381.386898,282.798 376.001448,276.87568 365.230547,276.87568 C360.01882,276.87568 356.066594,278.269167 353.373869,281.056141 C350.681144,283.843115 348.379298,288.546134 346.468332,295.165198 L346.468332,384 L324,384 L324,258.586162 L344.846906,258.586162 L345.628664,276.614401 L346.67101,276.614401 C349.450597,269.840505 353.055375,264.876208 357.485342,261.721508 C362.371525,258.450151 368.161081,256.804655 374.032573,257.018489 C382.892508,257.018489 390.102063,259.849009 395.661238,265.510051 C401.220413,271.171092 404,279.488468 404,290.462179 L404,384 L381.386898,384 Z" id="Path" fill="url(#linearGradient-24)"></path>
            <path d="M517,345.97561 C517,371.99187 503.870432,385 477.611296,385 C464.481728,385 454.76412,381.834688 448.458472,375.504065 C442.152824,369.173442 439,359.330623 439,345.97561 L439,296.02439 C439,282.842818 442.152824,273.04336 448.458472,266.626016 C454.76412,260.208672 464.568106,257 477.870432,257 C503.956811,257 517,270.00813 517,296.02439 L517,326.98374 L460.767442,326.98374 L460.767442,346.495935 C460.767442,359.022282 466.38206,365.285456 477.611296,365.285456 C489.186047,365.285456 494.973422,359.022282 494.973422,346.495935 L494.973422,340.252033 L517,340.252033 L517,345.97561 Z M495,296.00258 C495,283.334193 489.333333,277 478,277 C466.666667,277 461,283.334193 461,296.00258 L461,311 L495,311 L495,296.00258 Z" id="Shape" fill="url(#linearGradient-25)"></path>
        </g>
    </g>
</svg>